<svg xmlns="http://www.w3.org/2000/svg" viewBox="0 0 720 620" role="img" aria-labelledby="rig-0-title"><desc id="rig-0-title">Controlebeeld van het vereenvoudigde skelet</desc><g transform=""><path d="M-1600,523H2200" stroke="#648396" stroke-width="1"/><path d="M-8.289280000000005,527v5" stroke="#537080"/><path d="M71.71072,527v5" stroke="#537080"/><path d="M151.71071999999998,527v5" stroke="#537080"/><path d="M231.71071999999998,527v5" stroke="#537080"/><path d="M311.71072,527v5" stroke="#537080"/><path d="M391.71072,527v5" stroke="#537080"/><path d="M471.71072,527v5" stroke="#537080"/><path d="M551.71072,527v5" stroke="#537080"/><path d="M631.71072,527v5" stroke="#537080"/><path d="M711.71072,527v5" stroke="#537080"/><path d="M791.71072,527v5" stroke="#537080"/><path d="M871.71072,527v5" stroke="#537080"/><path d="M951.71072,527v5" stroke="#537080"/><path d="M1031.71072,527v5" stroke="#537080"/><path d="M1111.71072,527v5" stroke="#537080"/><g opacity="0.28"><path d="M355,248.16L352,128.16" stroke="#526D82" stroke-width="67" stroke-linecap="round" fill="none" /><path d="M352,128.16L350,84.16" stroke="#526D82" stroke-width="52" stroke-linecap="round" fill="none" /><path d="M350,84.16L350,159.16" stroke="#AEC3CD" stroke-width="17" stroke-linecap="round" fill="none" /><path d="M350,159.16L375,224.16" stroke="#AEC3CD" stroke-width="13" stroke-linecap="round" fill="none" /><path d="M352,108.16L358,54.16" stroke="#AEC3CD" stroke-width="19" stroke-linecap="round" fill="none" /><circle cx="358" cy="41.16" r="24" fill="#BDCDD6"/><path d="M334,40.15744000000001 Q327,10.157440000000008 367,13.157440000000008 Q381,19.15744000000001 382,32.15744000000001 Q362,21.15744000000001 334,40.15744000000001" fill="#365367"/><circle cx="374" cy="38.16" r="1.8" fill="#142A3A"/></g><path d="M355,248.16L407.86,366.49" stroke="#e4ebef" stroke-width="3" stroke-linecap="round" fill="none" /><path d="M407.86,366.49L453.42,491.23" stroke="#e4ebef" stroke-width="3" stroke-linecap="round" fill="none" /><path d="M453.42,491.23L445.92,520" stroke="#65d6da" stroke-width="2" stroke-linecap="round" fill="none" /><path d="M445.92,520L507.79,498.18" stroke="#65d6da" stroke-width="3" stroke-linecap="round" fill="none" /><path d="M507.79,498.18L524.39,492.32" stroke="#edc46b" stroke-width="3" stroke-linecap="round" fill="none" /><circle cx="355" cy="248.16" r="4" fill="#ed927c"/><circle cx="407.86" cy="366.49" r="4" fill="#ed927c"/><circle cx="453.42" cy="491.23" r="4" fill="#ed927c"/><circle cx="445.92" cy="520" r="4" fill="#ed927c"/><circle cx="507.79" cy="498.18" r="4" fill="#ed927c"/><circle cx="524.39" cy="492.32" r="4" fill="#ed927c"/><g opacity="0.2"><path d="M355,248.16L338.89,376.75" stroke="#e4ebef" stroke-width="3" stroke-linecap="round" fill="none" /><path d="M338.89,376.75L255.72,480.28" stroke="#e4ebef" stroke-width="3" stroke-linecap="round" fill="none" /><path d="M255.72,480.28L231.74,497.86" stroke="#65d6da" stroke-width="2" stroke-linecap="round" fill="none" /><path d="M231.74,497.86L293.49,520" stroke="#65d6da" stroke-width="3" stroke-linecap="round" fill="none" /><path d="M293.49,520L311.09,520" stroke="#edc46b" stroke-width="3" stroke-linecap="round" fill="none" /><circle cx="355" cy="248.16" r="4" fill="#ed927c"/><circle cx="338.89" cy="376.75" r="4" fill="#ed927c"/><circle cx="255.72" cy="480.28" r="4" fill="#ed927c"/><circle cx="231.74" cy="497.86" r="4" fill="#ed927c"/><circle cx="293.49" cy="520" r="4" fill="#ed927c"/><circle cx="311.09" cy="520" r="4" fill="#ed927c"/></g></g></svg>