<svg xmlns="http://www.w3.org/2000/svg" viewBox="0 0 720 620" role="img" aria-labelledby="rig-3-title"><title id="rig-3-title">Controlebeeld van het vereenvoudigde skelet</title><g transform=""><path d="M-1600,523H2200" stroke="#648396" stroke-width="1"/><path d="M-61.58176,527v5" stroke="#537080"/><path d="M18.418239999999997,527v5" stroke="#537080"/><path d="M98.41824,527v5" stroke="#537080"/><path d="M178.41824,527v5" stroke="#537080"/><path d="M258.41823999999997,527v5" stroke="#537080"/><path d="M338.41823999999997,527v5" stroke="#537080"/><path d="M418.41823999999997,527v5" stroke="#537080"/><path d="M498.41823999999997,527v5" stroke="#537080"/><path d="M578.41824,527v5" stroke="#537080"/><path d="M658.41824,527v5" stroke="#537080"/><path d="M738.41824,527v5" stroke="#537080"/><path d="M818.41824,527v5" stroke="#537080"/><path d="M898.41824,527v5" stroke="#537080"/><path d="M978.41824,527v5" stroke="#537080"/><path d="M1058.41824,527v5" stroke="#537080"/><g opacity="0.28"><path d="M355,237.98L352,140.98" stroke="#526D82" stroke-width="67" stroke-linecap="round" fill="none" /><path d="M352,140.98L350,111.98" stroke="#526D82" stroke-width="52" stroke-linecap="round" fill="none" /><path d="M350,111.98L372.83,171.98" stroke="#AEC3CD" stroke-width="17" stroke-linecap="round" fill="none" /><path d="M372.83,171.98L397.83,201.98" stroke="#AEC3CD" stroke-width="13" stroke-linecap="round" fill="none" /><path d="M352,120.98L358,77.98" stroke="#AEC3CD" stroke-width="19" stroke-linecap="round" fill="none" /><circle cx="358" cy="64.98" r="24" fill="#BDCDD6"/><path d="M334,63.98496 Q327,33.98496 367,36.98496 Q381,42.98496 382,55.98496 Q362,44.98496 334,63.98496" fill="#365367"/><circle cx="374" cy="61.98" r="1.8" fill="#142A3A"/></g><path d="M355,237.98L368.98,366.83" stroke="#e4ebef" stroke-width="3" stroke-linecap="round" fill="none" /><path d="M368.98,366.83L330.09,493.81" stroke="#e4ebef" stroke-width="3" stroke-linecap="round" fill="none" /><path d="M330.09,493.81L312.67,517.9" stroke="#65d6da" stroke-width="2" stroke-linecap="round" fill="none" /><path d="M312.67,517.9L378.23,520" stroke="#65d6da" stroke-width="3" stroke-linecap="round" fill="none" /><path d="M378.23,520L395.83,520" stroke="#edc46b" stroke-width="3" stroke-linecap="round" fill="none" /><circle cx="355" cy="237.98" r="4" fill="#ed927c"/><circle cx="368.98" cy="366.83" r="4" fill="#ed927c"/><circle cx="330.09" cy="493.81" r="4" fill="#ed927c"/><circle cx="312.67" cy="517.9" r="4" fill="#ed927c"/><circle cx="378.23" cy="520" r="4" fill="#ed927c"/><circle cx="395.83" cy="520" r="4" fill="#ed927c"/><g opacity="0.2"><path d="M355,237.98L420.95,349.55" stroke="#e4ebef" stroke-width="3" stroke-linecap="round" fill="none" /><path d="M420.95,349.55L349.58,461.54" stroke="#e4ebef" stroke-width="3" stroke-linecap="round" fill="none" /><path d="M349.58,461.54L322.68,474.21" stroke="#65d6da" stroke-width="2" stroke-linecap="round" fill="none" /><path d="M322.68,474.21L379.06,507.75" stroke="#65d6da" stroke-width="3" stroke-linecap="round" fill="none" /><path d="M379.06,507.75L394.19,516.75" stroke="#edc46b" stroke-width="3" stroke-linecap="round" fill="none" /><circle cx="355" cy="237.98" r="4" fill="#ed927c"/><circle cx="420.95" cy="349.55" r="4" fill="#ed927c"/><circle cx="349.58" cy="461.54" r="4" fill="#ed927c"/><circle cx="322.68" cy="474.21" r="4" fill="#ed927c"/><circle cx="379.06" cy="507.75" r="4" fill="#ed927c"/><circle cx="394.19" cy="516.75" r="4" fill="#ed927c"/></g></g></svg>