<svg xmlns="http://www.w3.org/2000/svg" viewBox="0 0 720 620" role="img" aria-labelledby="still-7-title"><title id="still-7-title">Schematische wandelaar; voet, enkel en kuit tijdens lopen</title><g opacity=".65"><path d="M90 510V403" stroke="#6D9BA3" stroke-width="6"/><circle cx="90" cy="370" r="47" fill="#294B59"/><circle cx="68" cy="400" r="33" fill="#345D67"/><path d="M535 457h100m-85 0v62m70-62v62" stroke="#6D9BA3" stroke-width="7" stroke-linecap="round"/></g><g transform=""><path d="M-1600,523H2200" stroke="#648396" stroke-width="1"/><path d="M-61.83807999999999,527v5" stroke="#537080"/><path d="M18.16192000000001,527v5" stroke="#537080"/><path d="M98.16192000000001,527v5" stroke="#537080"/><path d="M178.16192,527v5" stroke="#537080"/><path d="M258.16192,527v5" stroke="#537080"/><path d="M338.16192,527v5" stroke="#537080"/><path d="M418.16192,527v5" stroke="#537080"/><path d="M498.16192,527v5" stroke="#537080"/><path d="M578.16192,527v5" stroke="#537080"/><path d="M658.16192,527v5" stroke="#537080"/><path d="M738.16192,527v5" stroke="#537080"/><path d="M818.16192,527v5" stroke="#537080"/><path d="M898.16192,527v5" stroke="#537080"/><path d="M978.16192,527v5" stroke="#537080"/><path d="M1058.16192,527v5" stroke="#537080"/><g opacity="1"><path d="M355,238.02L352,141.02" stroke="#526D82" stroke-width="67" stroke-linecap="round" fill="none" /><path d="M352,141.02L350,112.02" stroke="#526D82" stroke-width="52" stroke-linecap="round" fill="none" /><path d="M350,112.02L330.58,172.02" stroke="#AEC3CD" stroke-width="17" stroke-linecap="round" fill="none" /><path d="M330.58,172.02L355.58,202.02" stroke="#AEC3CD" stroke-width="13" stroke-linecap="round" fill="none" /><path d="M352,121.02L358,78.02" stroke="#AEC3CD" stroke-width="19" stroke-linecap="round" fill="none" /><circle cx="358" cy="65.02" r="24" fill="#BDCDD6"/><path d="M334,64.01567999999997 Q327,34.015679999999975 367,37.015679999999975 Q381,43.015679999999975 382,56.015679999999975 Q362,45.015679999999975 334,64.01567999999997" fill="#365367"/><circle cx="374" cy="62.02" r="1.8" fill="#142A3A"/></g><path d="M355,238.02L420.36,349.93" stroke="#BDCDDA" stroke-width="36" stroke-linecap="round" fill="none" /><path d="M420.36,349.93L392.49,479.77" stroke="#BDCDDA" stroke-width="23" stroke-linecap="round" fill="none" /><path d="M382.49,474.77 Q359.83,485.15 363.83,502.15 Q371.83,504.15 453.77,518.58 Q459.77,509.58 436.44,499.53 L402.49,474.77Z" fill="#BDCDDA"/><g opacity="1"><path d="M355,238.02L357.58,367.59" stroke="#637B8C" stroke-width="36" stroke-linecap="round" fill="none" /><path d="M357.58,367.59L309.81,491.5" stroke="#637B8C" stroke-width="23" stroke-linecap="round" fill="none" /><path d="M299.81,486.5 Q279.24,498.72 283.24,515.72 Q291.24,517.72 374.23,523 Q380.23,514 356.63,507 L319.81,486.5Z" fill="#637B8C"/></g></g></svg>