<svg xmlns="http://www.w3.org/2000/svg" viewBox="0 0 720 620" role="img" aria-labelledby="still-3-title"><desc id="still-3-title">Van rechtervoet naar schematisch windlassprincipe</desc><g opacity="0"><g opacity="0.28"><path d="M355,239.01L352,119.01" stroke="#526D82" stroke-width="67" stroke-linecap="round" fill="none" /><path d="M352,119.01L350,75.01" stroke="#526D82" stroke-width="52" stroke-linecap="round" fill="none" /><path d="M350,75.01L368.49,150.01" stroke="#AEC3CD" stroke-width="17" stroke-linecap="round" fill="none" /><path d="M368.49,150.01L393.49,215.01" stroke="#AEC3CD" stroke-width="13" stroke-linecap="round" fill="none" /><path d="M352,99.01L358,45.01" stroke="#AEC3CD" stroke-width="19" stroke-linecap="round" fill="none" /><circle cx="358" cy="32.01" r="24" fill="#BDCDD6"/><path d="M334,31.014591999999993 Q327,1.0145919999999933 367,4.014591999999993 Q381,10.014591999999993 382,23.014591999999993 Q362,12.014591999999993 334,31.014591999999993" fill="#365367"/><circle cx="374" cy="29.01" r="1.8" fill="#142A3A"/></g><g opacity=".16"><path d="M355,239.01L358.05,368.58" stroke="#BDCDDA" stroke-width="36" stroke-linecap="round" fill="none" /><path d="M358.05,368.58L307.73,491.47" stroke="#BDCDDA" stroke-width="23" stroke-linecap="round" fill="none" /><path d="M297.73,486.47 Q277.15,498.68 281.15,515.68 Q289.15,517.68 372.13,523 Q378.13,514 354.53,507 L317.73,486.47Z" fill="#BDCDDA"/></g><path d="M355,239.01L358.05,368.58" stroke="#D9E3E9" stroke-width="12" stroke-linecap="round" fill="none" /><circle cx="355" cy="239.01" r="12" fill="#E4EBEF"/><circle cx="358.05" cy="368.58" r="9" fill="#E4EBEF"/><path d="M358.05,368.58L307.73,491.47" stroke="#E4EBEF" stroke-width="10" stroke-linecap="round" fill="none" /><path d="M352.05,381.58L300.73,493.47" stroke="#6E8797" stroke-width="3" stroke-linecap="round" fill="none" /><ellipse cx="368.052352" cy="368.57856" rx="4" ry="8" fill="#B6CAD5"/><g opacity="0.22"><path d="M349.5,387.01 C336.94,380.84 300.74,454.58 313.31,460.75 C325.88,466.92 362.07,393.18 349.5,387.01" fill="#EDC46B" stroke="#102330" stroke-width="1.2"/><path d="M350.81,358.21 C332.41,350.36 295.46,436.92 313.85,444.77 C332.25,452.63 369.2,366.07 350.81,358.21" fill="#ED927C" stroke="#102330" stroke-width="1.2"/><path d="M313.85,444.77L313.31,460.75" stroke="#DCB4A2" stroke-width="4" stroke-linecap="round" fill="none" /><path d="M313.31,460.75L287.15,505.68" stroke="#EFF6F9" stroke-width="5" stroke-linecap="round" fill="none" /></g><g opacity="0.22"><path d="M366.05,383.58 C357.39,378.59 305.06,469.49 313.73,474.47 C322.4,479.46 374.72,388.57 366.05,383.58" fill="#BDB0F5" stroke="#102330" stroke-width="1.2"/><path d="M313.73,474.47L332.53,511" stroke="#BDB0F5" stroke-width="3" stroke-linecap="round" fill="none" /></g><g transform="translate(289.15,514.68) rotate(4.6638764523649) scale(.32)">
   <path d="M-19,-12 Q-25,-43 -3,-52 L48,-48 Q74,-37 61,-13 L33,1 -9,1Z" fill="#D8E6EA" stroke="#49616F" stroke-width="2"/>
   <path d="M28,-58 Q26,-89 49,-91 Q74,-86 82,-63 L62,-48 39,-47Z" fill="#EDF3F5" stroke="#49616F" stroke-width="2"/>
   <path d="M78,-61 Q92,-75 108,-57 L110,-34 87,-30 72,-42Z" fill="#D8E6EA" stroke="#49616F" stroke-width="2"/>
   <path d="M110,-55 L134,-43 142,-24 119,-19 108,-33Z" fill="#E4EBEF" stroke="#49616F" stroke-width="2"/>
   <path d="M138,-37 Q157,-30 178,-26 L205,-20 Q217,-10 204,-2 L180,-8 139,-18Z" fill="#EDF3F5" stroke="#49616F" stroke-width="2"/>
   <path d="M6,-9 Q91,-35 201,-7" fill="none" stroke="#65D6DA" stroke-width="6" opacity="1"/>
   </g><path d="M355.53,517L365.09,517" stroke="#DAE7EC" stroke-width="7" stroke-linecap="round" fill="none" /><path d="M367.09,517L372.13,517" stroke="#DAE7EC" stroke-width="5" stroke-linecap="round" fill="none" /><g opacity="0.2"><path d="M355,239.01L420.11,351.07" stroke="#637B8C" stroke-width="36" stroke-linecap="round" fill="none" /><path d="M420.11,351.07L394.61,481.38" stroke="#637B8C" stroke-width="23" stroke-linecap="round" fill="none" /><path d="M384.61,476.38 Q363.11,487.83 367.11,504.83 Q375.11,506.83 457.69,516.88 Q463.69,507.88 440.22,498.76 L404.61,476.38Z" fill="#637B8C"/></g></g><defs><clipPath id="still-3-crop"><rect x="0" y="30" width="720" height="535"/></clipPath></defs><g opacity="1" clip-path="url(#still-3-crop)"><g transform="translate(445 430) scale(2.8) translate(-289.14924799999994 -514.684352)"><g opacity=".16"><path d="M355,239.01L358.05,368.58" stroke="#BDCDDA" stroke-width="36" stroke-linecap="round" fill="none" /><path d="M358.05,368.58L307.73,491.47" stroke="#BDCDDA" stroke-width="23" stroke-linecap="round" fill="none" /><path d="M297.73,486.47 Q277.15,498.68 281.15,515.68 Q289.15,517.68 372.13,523 Q378.13,514 354.53,507 L317.73,486.47Z" fill="#BDCDDA"/></g><path d="M355,239.01L358.05,368.58" stroke="#D9E3E9" stroke-width="12" stroke-linecap="round" fill="none" /><circle cx="355" cy="239.01" r="12" fill="#E4EBEF"/><circle cx="358.05" cy="368.58" r="9" fill="#E4EBEF"/><path d="M358.05,368.58L307.73,491.47" stroke="#E4EBEF" stroke-width="10" stroke-linecap="round" fill="none" /><path d="M352.05,381.58L300.73,493.47" stroke="#6E8797" stroke-width="3" stroke-linecap="round" fill="none" /><ellipse cx="368.052352" cy="368.57856" rx="4" ry="8" fill="#B6CAD5"/><g opacity="0.22"><path d="M349.5,387.01 C336.94,380.84 300.74,454.58 313.31,460.75 C325.88,466.92 362.07,393.18 349.5,387.01" fill="#EDC46B" stroke="#102330" stroke-width="1.2"/><path d="M350.81,358.21 C332.41,350.36 295.46,436.92 313.85,444.77 C332.25,452.63 369.2,366.07 350.81,358.21" fill="#ED927C" stroke="#102330" stroke-width="1.2"/><path d="M313.85,444.77L313.31,460.75" stroke="#DCB4A2" stroke-width="4" stroke-linecap="round" fill="none" /><path d="M313.31,460.75L287.15,505.68" stroke="#EFF6F9" stroke-width="5" stroke-linecap="round" fill="none" /></g><g opacity="0.22"><path d="M366.05,383.58 C357.39,378.59 305.06,469.49 313.73,474.47 C322.4,479.46 374.72,388.57 366.05,383.58" fill="#BDB0F5" stroke="#102330" stroke-width="1.2"/><path d="M313.73,474.47L332.53,511" stroke="#BDB0F5" stroke-width="3" stroke-linecap="round" fill="none" /></g><g transform="translate(289.15,514.68) rotate(4.6638764523649) scale(.32)">
   <path d="M-19,-12 Q-25,-43 -3,-52 L48,-48 Q74,-37 61,-13 L33,1 -9,1Z" fill="#D8E6EA" stroke="#49616F" stroke-width="2"/>
   <path d="M28,-58 Q26,-89 49,-91 Q74,-86 82,-63 L62,-48 39,-47Z" fill="#EDF3F5" stroke="#49616F" stroke-width="2"/>
   <path d="M78,-61 Q92,-75 108,-57 L110,-34 87,-30 72,-42Z" fill="#D8E6EA" stroke="#49616F" stroke-width="2"/>
   <path d="M110,-55 L134,-43 142,-24 119,-19 108,-33Z" fill="#E4EBEF" stroke="#49616F" stroke-width="2"/>
   <path d="M138,-37 Q157,-30 178,-26 L205,-20 Q217,-10 204,-2 L180,-8 139,-18Z" fill="#EDF3F5" stroke="#49616F" stroke-width="2"/>
   <path d="M6,-9 Q91,-35 201,-7" fill="none" stroke="#65D6DA" stroke-width="6" opacity="1"/>
   </g><path d="M355.53,517L365.09,517" stroke="#DAE7EC" stroke-width="7" stroke-linecap="round" fill="none" /><path d="M367.09,517L372.13,517" stroke="#DAE7EC" stroke-width="5" stroke-linecap="round" fill="none" /></g></g><g opacity="0" transform="translate(445 430) rotate(4.6638764523649) scale(0.8959999999999999)"><g opacity="1" transform="translate(0 -13)"><path d="M10.2,0L94.45,-67.84" stroke="#E4EBEF" stroke-width="5" stroke-linecap="round" fill="none" /><path d="M94.45,-67.84L205,0" stroke="#E4EBEF" stroke-width="5" stroke-linecap="round" fill="none" /><circle cx="205" cy="0" r="10" fill="#49616F"/><path d="M205,0L233.79,-46.87" stroke="#E4EBEF" stroke-width="7" stroke-linecap="round" fill="none" /><path d="M10.2,10L205,10 A10,10 0 0 0 213.52,5.23 L229.22,-20.33" stroke="#65D6DA" stroke-width="4" fill="none"/><circle cx="10.2" cy="0" r="4" fill="#65D6DA"/><circle cx="94.45" cy="-67.84" r="4" fill="#E4EBEF"/></g></g><g opacity="1" transform="translate(42 385) rotate(0) scale(1.12)"><g opacity="1" transform="translate(0 -13)"><path d="M10.2,0L94.45,-67.84" stroke="#E4EBEF" stroke-width="5" stroke-linecap="round" fill="none" /><path d="M94.45,-67.84L205,0" stroke="#E4EBEF" stroke-width="5" stroke-linecap="round" fill="none" /><circle cx="205" cy="0" r="10" fill="#49616F"/><path d="M205,0L233.79,-46.87" stroke="#E4EBEF" stroke-width="7" stroke-linecap="round" fill="none" /><path d="M10.2,10L205,10 A10,10 0 0 0 213.52,5.23 L229.22,-20.33" stroke="#65D6DA" stroke-width="4" fill="none"/><circle cx="10.2" cy="0" r="4" fill="#65D6DA"/><circle cx="94.45" cy="-67.84" r="4" fill="#E4EBEF"/></g></g><g fill="#B8CDD8" font-size="18"><text x="42" y="270">Teen omhoog → boog komt mee</text><text x="245" y="302" font-size="15">Grote teen</text><text x="42" y="435" fill="#65D6DA">Peesplaat</text><text x="240" y="435" font-size="15">Kopje</text><text x="42" y="470" font-size="15">Windlassprincipe · geen meetmodel</text></g><text x="445" y="515" fill="#B8CDD8" font-size="16">Rechtervoet · binnenzijde</text></svg>