<svg xmlns="http://www.w3.org/2000/svg" viewBox="0 0 720 620" role="img" aria-labelledby="still-6-title"><title id="still-6-title">Schematische wandelaar; voet, enkel en kuit tijdens lopen</title><g><text x="175" y="150" text-anchor="middle" fill="#E4EBEF" font-size="20">Knie gestrekt</text><path d="M135,195L145,302" stroke="#D5E3EA" stroke-width="14" stroke-linecap="round" fill="none" /><path d="M145,302L153,421" stroke="#D5E3EA" stroke-width="12" stroke-linecap="round" fill="none" /><path d="M140,447L202,447" stroke="#D5E3EA" stroke-width="11" stroke-linecap="round" fill="none" /><path d="M153,421L140,447" stroke="#D5E3EA" stroke-width="10" stroke-linecap="round" fill="none" /><path d="M140,317 C128.01,317.36 130.41,397.56 142.4,397.2 C154.39,396.84 151.99,316.64 140,317" fill="#EDC46B" stroke="#102330" stroke-width="1.2"/><path d="M134,284 C117.05,285.26 125.45,398.46 142.4,397.2 C159.35,395.94 150.95,282.74 134,284" fill="#ED927C" stroke="#102330" stroke-width="1.2"/><path d="M142.4,397.2L140,447" stroke="#EFF6F9" stroke-width="4" stroke-linecap="round" fill="none" /><circle cx="145" cy="302" r="9" fill="#E4EBEF"/><path d="M116,467q-2,-20 14,-19 M210,467q15,-18 -1,-27" stroke="#AFC5D0" stroke-width="7" stroke-linecap="round" fill="none"/></g><g><text x="505" y="150" text-anchor="middle" fill="#E4EBEF" font-size="20">Knie gebogen</text><path d="M465,195L475,302" stroke="#D5E3EA" stroke-width="14" stroke-linecap="round" fill="none" /><path d="M475,302L547,386" stroke="#D5E3EA" stroke-width="12" stroke-linecap="round" fill="none" /><path d="M534,412L596,412" stroke="#D5E3EA" stroke-width="11" stroke-linecap="round" fill="none" /><path d="M547,386L534,412" stroke="#D5E3EA" stroke-width="10" stroke-linecap="round" fill="none" /><path d="M470,317 C461.63,325.6 515.23,377.8 523.6,369.2 C531.97,360.6 478.37,308.4 470,317" fill="#EDC46B" stroke="#102330" stroke-width="1.2"/><path d="M464,284 C450.07,293.74 509.67,378.94 523.6,369.2 C537.53,359.46 477.93,274.26 464,284" fill="#ED927C" stroke="#102330" stroke-width="1.2"/><path d="M523.6,369.2L534,412" stroke="#EFF6F9" stroke-width="4" stroke-linecap="round" fill="none" /><circle cx="475" cy="302" r="9" fill="#E4EBEF"/><path d="M510,432q-2,-20 14,-19 M604,432q15,-18 -1,-27" stroke="#AFC5D0" stroke-width="7" stroke-linecap="round" fill="none"/></g><text x="360" y="515" text-anchor="middle" fill="#B8CDD8" font-size="16">Bewegingsruimte · kracht en belasting · jouw verhaal</text><text x="360" y="545" text-anchor="middle" fill="#B8CDD8" font-size="13">Schematische onderzoekshoudingen · geen zelftest</text></svg>