<svg xmlns="http://www.w3.org/2000/svg" viewBox="0 0 320 320" role="img" aria-labelledby="title desc">
  <title id="title">MvD logo</title>
  <desc id="desc">Monogram logo voor Matthijs van Dam met een subtiele voet- en enkellijn</desc>
  <defs>
    <linearGradient id="field" x1="52" y1="36" x2="264" y2="286" gradientUnits="userSpaceOnUse">
      <stop offset="0" stop-color="#173653"/>
      <stop offset="0.58" stop-color="#244c3d"/>
      <stop offset="1" stop-color="#5ba8a0"/>
    </linearGradient>
    <linearGradient id="accent" x1="88" y1="78" x2="240" y2="238" gradientUnits="userSpaceOnUse">
      <stop offset="0" stop-color="#d9b45f"/>
      <stop offset="1" stop-color="#b6654a"/>
    </linearGradient>
  </defs>
  <rect width="320" height="320" rx="76" fill="#fffdf8"/>
  <path fill="url(#field)" d="M160 28c70.7 0 128 57.3 128 128 0 70.2-56.5 127.2-126.5 128H54c-9.9 0-18-8.1-18-18V156C36 85.3 89.3 28 160 28Z"/>
  <path fill="none" stroke="url(#accent)" stroke-linecap="round" stroke-linejoin="round" stroke-width="15" d="M88 106c24-27 65-42 101-29 34 12 54 41 54 75 0 40-27 71-66 81-34 8-68 1-99-21"/>
  <path fill="none" stroke="#fffdf8" stroke-linecap="round" stroke-linejoin="round" stroke-width="12" d="M91 212c23 16 50 21 73 12 16-6 26-18 29-34 2-14-3-27-13-36-12-9-29-10-46-3" opacity="0.95"/>
  <circle cx="198" cy="121" r="13" fill="#fffdf8" opacity="0.95"/>
  <circle cx="176" cy="104" r="11" fill="#fffdf8" opacity="0.9"/>
  <circle cx="151" cy="98" r="9.5" fill="#fffdf8" opacity="0.86"/>
  <circle cx="126" cy="104" r="8.5" fill="#fffdf8" opacity="0.82"/>
  <text x="160" y="195" fill="#fffdf8" font-family="Georgia, 'Times New Roman', serif" font-size="74" font-weight="700" text-anchor="middle">MvD</text>
</svg>
