<svg xmlns="http://www.w3.org/2000/svg" viewBox="0 0 1200 675" role="img" aria-labelledby="title desc">
  <title id="title">We Walk augmented reality wandelroute</title>
  <desc id="desc">Een rustige wandelroute met subtiele digitale markeringen als symbool voor augmented reality en beweging.</desc>
  <defs>
    <linearGradient id="sky" x1="0" x2="1" y1="0" y2="1">
      <stop offset="0" stop-color="#f7f4ed"/>
      <stop offset="1" stop-color="#dce8df"/>
    </linearGradient>
    <linearGradient id="path" x1="0" x2="1" y1="0" y2="1">
      <stop offset="0" stop-color="#fffdf8"/>
      <stop offset="1" stop-color="#d8d5ca"/>
    </linearGradient>
    <filter id="shadow" x="-10%" y="-10%" width="120%" height="125%">
      <feDropShadow dx="0" dy="18" stdDeviation="18" flood-color="#17201c" flood-opacity="0.16"/>
    </filter>
  </defs>
  <rect width="1200" height="675" fill="url(#sky)"/>
  <path d="M0 480 C210 414 380 444 570 396 C760 348 930 326 1200 362 L1200 675 L0 675 Z" fill="#244c3d" opacity="0.18"/>
  <path d="M0 555 C190 493 360 535 555 472 C782 399 958 413 1200 454 L1200 675 L0 675 Z" fill="#5ba8a0" opacity="0.22"/>
  <path d="M507 675 C530 548 569 452 626 366 C680 285 739 238 806 190 C875 141 952 106 1040 78" fill="none" stroke="url(#path)" stroke-width="96" stroke-linecap="round"/>
  <path d="M507 675 C530 548 569 452 626 366 C680 285 739 238 806 190 C875 141 952 106 1040 78" fill="none" stroke="#244c3d" stroke-width="4" stroke-dasharray="18 22" opacity="0.35"/>
  <g fill="#244c3d" opacity="0.22">
    <circle cx="146" cy="184" r="54"/>
    <rect x="138" y="228" width="16" height="188" rx="8"/>
    <circle cx="1074" cy="212" r="66"/>
    <rect x="1065" y="265" width="18" height="188" rx="9"/>
    <circle cx="244" cy="338" r="38"/>
    <rect x="238" y="371" width="12" height="106" rx="6"/>
  </g>
  <g filter="url(#shadow)">
    <rect x="108" y="92" width="322" height="520" rx="36" fill="#17201c"/>
    <rect x="130" y="128" width="278" height="450" rx="24" fill="#fffdf8"/>
    <path d="M162 444 C232 401 302 432 376 382 L376 542 L162 542 Z" fill="#dce8df"/>
    <path d="M162 500 C238 462 310 483 376 438" fill="none" stroke="#5ba8a0" stroke-width="10" stroke-linecap="round"/>
    <circle cx="224" cy="460" r="22" fill="#c49a46"/>
    <circle cx="307" cy="428" r="22" fill="#244c3d"/>
    <circle cx="350" cy="392" r="18" fill="#b6654a"/>
    <path d="M178 202 H360" stroke="#244c3d" stroke-width="14" stroke-linecap="round"/>
    <path d="M178 248 H316" stroke="#d8d5ca" stroke-width="12" stroke-linecap="round"/>
    <path d="M178 292 H346" stroke="#d8d5ca" stroke-width="12" stroke-linecap="round"/>
  </g>
  <g fill="none" stroke-linecap="round" stroke-linejoin="round">
    <path d="M702 332 L758 286 L816 315 L875 256" stroke="#b6654a" stroke-width="10"/>
    <circle cx="702" cy="332" r="20" fill="#fffdf8" stroke="#b6654a" stroke-width="8"/>
    <circle cx="758" cy="286" r="20" fill="#fffdf8" stroke="#b6654a" stroke-width="8"/>
    <circle cx="816" cy="315" r="20" fill="#fffdf8" stroke="#b6654a" stroke-width="8"/>
    <circle cx="875" cy="256" r="20" fill="#fffdf8" stroke="#b6654a" stroke-width="8"/>
  </g>
  <g fill="#244c3d">
    <circle cx="943" cy="430" r="18"/>
    <path d="M943 452 C908 499 892 548 884 610" stroke="#244c3d" stroke-width="18" stroke-linecap="round"/>
    <path d="M923 506 L868 552" stroke="#244c3d" stroke-width="16" stroke-linecap="round"/>
    <path d="M930 513 L982 560" stroke="#244c3d" stroke-width="16" stroke-linecap="round"/>
  </g>
  <g fill="#fffdf8" opacity="0.85">
    <rect x="724" y="92" width="268" height="66" rx="33"/>
    <circle cx="760" cy="125" r="14" fill="#5ba8a0"/>
    <rect x="790" y="114" width="156" height="22" rx="11" fill="#244c3d" opacity="0.28"/>
  </g>
</svg>
